<?xml version="1.0" encoding="UTF-8" standalone="no"?> <svg width="512" height="512" viewBox="0 0 512 512" fill="none" xmlns="http://www.w3.org/2000/svg">
<path d="M175.4 295.8C175.2 295.7 175 295.6 174.8 295.5C174.8 295.5 174.7 295.5 174.7 295.4C174.5 295.3 174.2 295.2 174 295.1L152.4 288.6C148.2 287.3 143.7 289.7 142.4 293.9C141.1 298.1 143.5 302.6 147.7 303.9L150.9 304.9L76.2001 344.9C72.3001 347 70.8002 351.8 72.9002 355.7C74.3002 358.4 77.1002 359.9 80.0002 359.9C81.3002 359.9 82.6002 359.6 83.8002 359L158.5 319L157.5 322.2C156.2 326.4 158.6 330.9 162.8 332.2C163.6 332.4 164.4 332.5 165.1 332.5C168.5 332.5 171.7 330.3 172.8 326.8L179.3 305.2C179.4 304.9 179.4 304.7 179.5 304.4V304.3C179.5 304.1 179.6 303.8 179.6 303.6V303.5C179.6 303.3 179.6 303 179.6 302.8C179.6 302 179.5 301.3 179.3 300.5V300.4C179.2 300.2 179.2 300 179.1 299.7C179 299.5 178.9 299.2 178.8 299C178.7 298.8 178.5 298.5 178.4 298.3C178.3 298.1 178.2 298 178.1 297.8C178.1 297.7 178 297.7 178 297.6C177.9 297.4 177.7 297.3 177.5 297.1C177.5 297.1 177.5 297 177.4 297C177.2 296.8 177.1 296.7 176.9 296.5C176.9 296.5 176.9 296.5 176.8 296.4C176.6 296.3 176.4 296.1 176.3 296C176.3 296 176.2 296 176.2 295.9C176 295.8 175.9 295.7 175.7 295.6C175.5 295.9 175.5 295.9 175.4 295.8Z" fill="black"/>
<path d="M88 48H168C172.4 48 176 44.4 176 40C176 35.6 172.4 32 168 32H88C83.6 32 80 35.6 80 40C80 44.4 83.6 48 88 48Z" fill="black"/>
<path d="M40 80H168C172.4 80 176 76.4 176 72C176 67.6 172.4 64 168 64H40C35.6 64 32 67.6 32 72C32 76.4 35.6 80 40 80Z" fill="black"/>
<path d="M168 96H40C35.6 96 32 99.6 32 104C32 108.4 35.6 112 40 112H168C172.4 112 176 108.4 176 104C176 99.6 172.4 96 168 96Z" fill="black"/>
<path d="M168 176C172.4 176 176 172.4 176 168C176 163.6 172.4 160 168 160H88C83.6 160 80 163.6 80 168C80 172.4 83.6 176 88 176H168Z" fill="black"/>
<path d="M32 200C32 204.4 35.6 208 40 208H168C172.4 208 176 204.4 176 200C176 195.6 172.4 192 168 192H40C35.6 192 32 195.6 32 200Z" fill="black"/>
<path d="M40 240H112C116.4 240 120 236.4 120 232C120 227.6 116.4 224 112 224H40C35.6 224 32 227.6 32 232C32 236.4 35.6 240 40 240Z" fill="black"/>
<path d="M464 376C468.4 376 472 372.4 472 368V344C472 343.7 472 343.5 472 343.2C472 343.1 472 343 472 342.9C472 342.7 472 342.6 471.9 342.4C471.9 342.3 471.8 342.2 471.8 342C471.8 341.9 471.7 341.7 471.7 341.6C471.7 341.5 471.6 341.4 471.6 341.2C471.6 341.1 471.5 340.9 471.5 340.8C471.5 340.7 471.4 340.6 471.3 340.5C471.2 340.4 471.2 340.2 471.1 340.1C471 340 471 339.9 470.9 339.8C470.8 339.7 470.8 339.6 470.7 339.4C470.6 339.3 470.5 339.2 470.5 339.1C470.4 339 470.4 338.9 470.3 338.8C470.2 338.6 470 338.4 469.8 338.3C469.8 338.3 469.8 338.3 469.7 338.2C469.7 338.2 469.7 338.2 469.6 338.2C469.4 338 469.3 337.9 469.1 337.7C469 337.6 468.9 337.6 468.8 337.5C468.7 337.4 468.6 337.3 468.5 337.3C468.4 337.2 468.3 337.2 468.2 337.1C468.1 337 468 337 467.9 336.9C467.8 336.8 467.7 336.8 467.5 336.7C467.4 336.6 467.3 336.6 467.1 336.5C467 336.5 466.9 336.4 466.8 336.4C466.7 336.4 466.5 336.3 466.4 336.3C466.3 336.3 466.2 336.2 466.1 336.2C466 336.2 465.8 336.1 465.7 336.1C465.6 336.1 465.4 336.1 465.3 336C465.2 336 465 336 464.9 335.9C464.7 335.9 464.4 335.9 464.2 335.9H464.1H440.1C435.7 335.9 432.1 339.5 432.1 343.9C432.1 348.3 435.7 351.9 440.1 351.9H444.8L431.4 365.3L405 345.5C403.1 344.1 400.7 343.6 398.4 344.1C396.1 344.6 394.1 346.2 393.1 348.3L366.1 402.4L341.9 378.2C340.2 376.5 337.8 375.7 335.5 375.9C333.1 376.1 331 377.4 329.6 379.4L297.6 427.4C295.1 431.1 296.1 436 299.8 438.5C301.2 439.4 302.7 439.8 304.2 439.8C306.8 439.8 309.3 438.5 310.9 436.2L337.5 396.3L362.6 421.4C364.4 423.2 367 424.1 369.5 423.6C372 423.2 374.2 421.6 375.4 419.3L403.1 363.9L427.4 382.1C430.6 384.5 435 384.2 437.9 381.4L456.2 363.1V367.8C456 372.4 459.6 376 464 376Z" fill="black"/>
<path d="M328 424V456C328 460.4 331.6 464 336 464C340.4 464 344 460.4 344 456V424C344 419.6 340.4 416 336 416C331.6 416 328 419.6 328 424Z" fill="black"/>
<path d="M376 472V440C376 435.6 372.4 432 368 432C363.6 432 360 435.6 360 440V472C360 476.4 363.6 480 368 480C372.4 480 376 476.4 376 472Z" fill="black"/>
<path d="M400 384C395.6 384 392 387.6 392 392V424C392 428.4 395.6 432 400 432C404.4 432 408 428.4 408 424V392C408 387.6 404.4 384 400 384Z" fill="black"/>
<path d="M432 400C427.6 400 424 403.6 424 408V440C424 444.4 427.6 448 432 448C436.4 448 440 444.4 440 440V408C440 403.6 436.4 400 432 400Z" fill="black"/>
<path d="M251.3 200H299.7C317.1 233.3 351.9 256 391.9 256C449.2 256 495.9 209.3 495.9 152C495.9 94.7 449.3 48 392 48C387.6 48 384 51.6 384 56V144H296C291.6 144 288 147.6 288 152C288 163.2 289.8 173.9 293 184H251.3L253.6 181.7C256.7 178.6 256.7 173.5 253.6 170.4C250.5 167.3 245.4 167.3 242.3 170.4L226.3 186.4C226.3 186.4 226.3 186.4 226.2 186.5C226 186.7 225.9 186.8 225.7 187C225.6 187.1 225.5 187.2 225.5 187.3C225.4 187.4 225.3 187.5 225.3 187.6C225.2 187.7 225.1 187.8 225.1 188C225 188.1 225 188.2 224.9 188.3C224.8 188.4 224.8 188.6 224.7 188.7C224.6 188.8 224.6 188.9 224.5 189C224.4 189.1 224.4 189.3 224.4 189.4C224.4 189.5 224.3 189.6 224.3 189.8C224.3 189.9 224.2 190.1 224.2 190.2C224.2 190.3 224.1 190.4 224.1 190.6C224.1 190.8 224.1 190.9 224 191.1C224 191.2 224 191.3 224 191.4C223.9 191.9 223.9 192.5 224 193C224 193.1 224 193.2 224 193.3C224 193.5 224 193.6 224.1 193.8C224.1 193.9 224.2 194 224.2 194.2C224.2 194.3 224.3 194.5 224.3 194.6C224.3 194.7 224.4 194.8 224.4 195C224.4 195.1 224.5 195.3 224.5 195.4C224.5 195.5 224.6 195.6 224.7 195.7C224.8 195.8 224.8 196 224.9 196.1C225 196.2 225 196.3 225.1 196.4C225.2 196.5 225.2 196.6 225.3 196.8C225.4 196.9 225.5 197 225.5 197.1C225.6 197.2 225.6 197.3 225.7 197.4C225.8 197.6 226 197.8 226.2 197.9C226.2 197.9 226.2 197.9 226.3 198L242.3 214C243.9 215.6 245.9 216.3 248 216.3C250.1 216.3 252.1 215.5 253.7 214C256.8 210.9 256.8 205.8 253.7 202.7L251.3 200Z" fill="black"/>
<path d="M248 480H224V344C224 339.6 220.4 336 216 336H184C179.6 336 176 339.6 176 344V480H160V376C160 371.6 156.4 368 152 368H120C115.6 368 112 371.6 112 376V480H96V408C96 403.6 92.4 400 88 400H56C51.6 400 48 403.6 48 408V480H32V304C32 299.6 28.4 296 24 296C19.6 296 16 299.6 16 304V488C16 492.4 19.6 496 24 496H56H88H120H152H184H216H248C252.4 496 256 492.4 256 488C256 483.6 252.4 480 248 480Z" fill="black"/>
<path d="M488 480H368H288V304C288 299.6 284.4 296 280 296C275.6 296 272 299.6 272 304V488C272 492.4 275.6 496 280 496H488C492.4 496 496 492.4 496 488C496 483.6 492.4 480 488 480Z" fill="black"/>
<path d="M208.1 65.1C208.1 65.3 208.1 65.4 208.2 65.6C208.2 65.7 208.3 65.8 208.3 66C208.3 66.1 208.4 66.3 208.4 66.4C208.4 66.5 208.5 66.6 208.5 66.8C208.5 66.9 208.6 67.1 208.6 67.2C208.6 67.3 208.7 67.4 208.8 67.5C208.9 67.6 208.9 67.8 209 67.9C209.1 68 209.1 68.1 209.2 68.2C209.3 68.3 209.3 68.4 209.4 68.6C209.5 68.7 209.6 68.8 209.6 68.9C209.7 69 209.7 69.1 209.8 69.2C209.9 69.4 210.1 69.6 210.3 69.7C210.3 69.7 210.3 69.7 210.4 69.8L226.4 85.8C228 87.4 230 88.1 232.1 88.1C234.2 88.1 236.2 87.3 237.8 85.8C240.9 82.7 240.9 77.6 237.8 74.5L235.5 72.2H267.9C260.4 86.6 256.1 102.9 256.1 120.2C256.1 124.6 259.7 128.2 264.1 128.2H360.1C364.5 128.2 368.1 124.6 368.1 120.2V24C368.1 19.6 364.5 16 360.1 16C326.9 16 297.2 31.7 278.2 56H235.4L237.7 53.7C240.8 50.6 240.8 45.5 237.7 42.4C234.6 39.3 229.5 39.3 226.4 42.4L210.4 58.4C210.4 58.4 210.4 58.4 210.3 58.5C210.1 58.7 210 58.8 209.8 59C209.7 59.1 209.6 59.2 209.6 59.3C209.5 59.4 209.4 59.5 209.4 59.6C209.3 59.7 209.2 59.8 209.2 60C209.1 60.1 209.1 60.2 209 60.3C208.9 60.4 208.9 60.6 208.8 60.7C208.7 60.8 208.7 60.9 208.6 61C208.5 61.1 208.5 61.3 208.5 61.4C208.5 61.5 208.4 61.6 208.4 61.8C208.4 61.9 208.3 62.1 208.3 62.2C208.3 62.3 208.2 62.4 208.2 62.6C208.2 62.8 208.2 62.9 208.1 63.1C208.1 63.2 208.1 63.3 208.1 63.4C208 63.9 208 64.5 208.1 65C208.1 64.9 208.1 65 208.1 65.1Z" fill="black"/>
</svg>
