<svg width="67" height="68" viewBox="0 0 67 68" fill="none" xmlns="http://www.w3.org/2000/svg">
<g filter="url(#filter0_d_558_1654)">
<path d="M15.1 16L9 16.6L12.4 22.4L22.9 16.3L19.4 10.4L15.9 15.7C15.7 15.8 15.4 16 15.1 16Z" fill="#2430D0"/>
<path d="M62 30H57V29.7C57 22.7 51.3 17 44.3 17H39.6C39.7 17.3 39.8 17.6 39.9 17.9V18C39.9 18.3 40 18.6 40 18.9C41.1 18.9 42 19.8 42 20.9V22.9C42 24 41.1 24.9 40 24.9H34H26C24.9 24.9 24 24 24 22.9V20.9C24 19.8 24.9 18.9 26 18.9H28C28 18.6 28 18.3 28.1 18V17.9C28.2 17.6 28.2 17.3 28.4 17H25.1C25.1 17 25.1 17.1 25 17.1C25 17.1 25 17.2 24.9 17.2C24.8 17.3 24.7 17.4 24.6 17.4L12.4 24.5C12.3 24.5 12.2 24.6 12.2 24.6H12.1H12C11.3 26.2 11 27.9 11 29.6V33V34H8C7.4 34 7 34.4 7 35V38H9V39H7V40C7 40.6 7.4 41 8 41H11V42V42.3C11 46.5 13.1 50.4 16.5 52.8C16.8 53 17 53.3 17 53.6V59C17 59.6 17.4 60 18 60H27C27.6 60 28 59.6 28 59V56C28 55.4 28.4 55 29 55H39C39.6 55 40 55.4 40 56V59C40 59.6 40.4 60 41 60H50C50.6 60 51 59.6 51 59V53.6C51 53.3 51.2 53 51.5 52.8C55 50.4 57 46.5 57 42.3V32H61V37H63V31C63 30.4 62.6 30 62 30ZM16 30H14V28H16V30ZM37 36H35V34H34V38H36C36.6 38 37 38.4 37 39V45C37 45.6 36.6 46 36 46H34V49H32V46H30C29.4 46 29 45.6 29 45V42H31V44H32V40H30C29.4 40 29 39.6 29 39V33C29 32.4 29.4 32 30 32H32V29H34V32H36C36.6 32 37 32.4 37 33V36Z" fill="#2430D0"/>
<path d="M40.0001 21H39.7001C39.7001 21 39.7001 21 39.7001 21.1C39.6001 21.4 39.4001 21.7 39.3001 22C39.3001 22 39.3001 22.1 39.2001 22.1C39.0001 22.4 38.8001 22.7 38.6001 22.9H40.0001V21Z" fill="#2430D0"/>
<path d="M26 21V23H29.5C29.3 22.7 29.1 22.5 28.9 22.2C28.9 22.2 28.9 22.1 28.8 22.1C28.6 21.8 28.5 21.5 28.4 21.2C28.4 21.2 28.4 21.2 28.4 21.1H26V21Z" fill="#2430D0"/>
<path d="M44 12C46.2091 12 48 10.2091 48 8C48 5.79086 46.2091 4 44 4C41.7909 4 40 5.79086 40 8C40 10.2091 41.7909 12 44 12Z" fill="#2430D0"/>
<path d="M32 34H31V38H32V34Z" fill="#2430D0"/>
<path d="M35 40H34V44H35V40Z" fill="#2430D0"/>
<path d="M9.59995 7.99995L5.79995 14.8H5.99995V17.7L4.19995 20.4L5.79995 21.6L6.99995 19.8L8.19995 21.6L9.79995 20.4L7.99995 17.7V14.6L14.4 14L18.6 7.79995L19 7.19995L9.59995 7.99995Z" fill="#2430D0"/>
<path d="M34 23C36.2091 23 38 21.2091 38 19C38 16.7909 36.2091 15 34 15C31.7909 15 30 16.7909 30 19C30 21.2091 31.7909 23 34 23Z" fill="#2430D0"/>
</g>
<defs>
<filter id="filter0_d_558_1654" x="-3" y="0" width="72" height="72" filterUnits="userSpaceOnUse" color-interpolation-filters="sRGB">
<feFlood flood-opacity="0" result="BackgroundImageFix"/>
<feColorMatrix in="SourceAlpha" type="matrix" values="0 0 0 0 0 0 0 0 0 0 0 0 0 0 0 0 0 0 127 0" result="hardAlpha"/>
<feOffset dy="4"/>
<feGaussianBlur stdDeviation="2"/>
<feComposite in2="hardAlpha" operator="out"/>
<feColorMatrix type="matrix" values="0 0 0 0 0 0 0 0 0 0 0 0 0 0 0 0 0 0 0.25 0"/>
<feBlend mode="normal" in2="BackgroundImageFix" result="effect1_dropShadow_558_1654"/>
<feBlend mode="normal" in="SourceGraphic" in2="effect1_dropShadow_558_1654" result="shape"/>
</filter>
</defs>
</svg>
