<?xml version="1.0" encoding="utf-8"?>
<!-- Generator: Adobe Illustrator 24.3.0, SVG Export Plug-In . SVG Version: 6.00 Build 0)  -->
<svg version="1.1" id="Layer_1" xmlns="http://www.w3.org/2000/svg" xmlns:xlink="http://www.w3.org/1999/xlink" x="0px" y="0px"
	 viewBox="0 0 64 64" enable-background="new 0 0 64 64" xml:space="preserve">
<path d="M14.1,16L8,16.6l3.4,5.8l10.5-6.1l-3.5-5.9l-3.5,5.3C14.7,15.8,14.4,16,14.1,16z"/>
<path d="M61,30h-5v-0.3c0-7-5.7-12.7-12.7-12.7h-4.7c0.1,0.3,0.2,0.6,0.3,0.9c0,0,0,0.1,0,0.1c0,0.3,0.1,0.6,0.1,0.9
	c1.1,0,2,0.9,2,2v2c0,1.1-0.9,2-2,2h-6h-8c-1.1,0-2-0.9-2-2v-2c0-1.1,0.9-2,2-2h2c0-0.3,0-0.6,0.1-0.9c0,0,0-0.1,0-0.1
	c0.1-0.3,0.1-0.6,0.3-0.9h-3.3c0,0,0,0.1-0.1,0.1c0,0,0,0.1-0.1,0.1c-0.1,0.1-0.2,0.2-0.3,0.2l-12.2,7.1c-0.1,0-0.2,0.1-0.2,0.1
	c0,0-0.1,0-0.1,0c0,0-0.1,0-0.1,0c-0.7,1.6-1,3.3-1,5V33v1H7c-0.6,0-1,0.4-1,1v3h2v1H6v1c0,0.6,0.4,1,1,1h3v1v0.3
	c0,4.2,2.1,8.1,5.5,10.5c0.3,0.2,0.5,0.5,0.5,0.8V59c0,0.6,0.4,1,1,1h9c0.6,0,1-0.4,1-1v-3c0-0.6,0.4-1,1-1h10c0.6,0,1,0.4,1,1v3
	c0,0.6,0.4,1,1,1h9c0.6,0,1-0.4,1-1v-5.4c0-0.3,0.2-0.6,0.5-0.8c3.5-2.4,5.5-6.3,5.5-10.5V32h4v5h2v-6C62,30.4,61.6,30,61,30z
	 M15,30h-2v-2h2V30z M36,36h-2v-2h-1v4h2c0.6,0,1,0.4,1,1v6c0,0.6-0.4,1-1,1h-2v3h-2v-3h-2c-0.6,0-1-0.4-1-1v-3h2v2h1v-4h-2
	c-0.6,0-1-0.4-1-1v-6c0-0.6,0.4-1,1-1h2v-3h2v3h2c0.6,0,1,0.4,1,1V36z"/>
<path d="M39,21h-0.3c0,0,0,0,0,0.1c-0.1,0.3-0.3,0.6-0.4,0.9c0,0,0,0.1-0.1,0.1c-0.2,0.3-0.4,0.6-0.6,0.8c0,0,0,0,0,0H39V21z"/>
<path d="M25,21v2h3.5c0,0,0,0,0,0c-0.2-0.3-0.4-0.5-0.6-0.8c0,0,0-0.1-0.1-0.1c-0.2-0.3-0.3-0.6-0.4-0.9c0,0,0,0,0-0.1H25z"/>
<circle cx="43" cy="8" r="4"/>
<rect x="30" y="34" width="1" height="4"/>
<rect x="33" y="40" width="1" height="4"/>
<polygon points="8.6,8 4.8,14.8 5,14.8 5,17.7 3.2,20.4 4.8,21.6 6,19.8 7.2,21.6 8.8,20.4 7,17.7 7,14.6 13.4,14 17.6,7.8 18,7.2 
	"/>
<circle cx="33" cy="19" r="4"/>
</svg>
