<svg width="64" height="64" viewBox="0 0 64 64" fill="none" xmlns="http://www.w3.org/2000/svg">
<path d="M27.71 2.5H8C6.54212 2.50264 5.14471 3.08295 4.11383 4.11383C3.08295 5.14471 2.50264 6.54212 2.5 8V27.71C2.5 28.1078 2.65804 28.4894 2.93934 28.7707C3.22064 29.052 3.60218 29.21 4 29.21H23.71C25.1687 29.21 26.5676 28.6305 27.5991 27.5991C28.6305 26.5676 29.21 25.1687 29.21 23.71V4C29.21 3.60218 29.052 3.22064 28.7707 2.93934C28.4894 2.65804 28.1078 2.5 27.71 2.5Z" fill="#2430D0"/>
<path d="M23.71 34.79H4C3.60218 34.79 3.22064 34.9481 2.93934 35.2294C2.65804 35.5107 2.5 35.8922 2.5 36.29V56C2.50264 57.4579 3.08295 58.8553 4.11383 59.8862C5.14471 60.9171 6.54212 61.4974 8 61.5H27.71C28.1078 61.5 28.4894 61.342 28.7707 61.0607C29.052 60.7794 29.21 60.3979 29.21 60V40.29C29.21 38.8313 28.6305 37.4324 27.5991 36.401C26.5676 35.3695 25.1687 34.79 23.71 34.79Z" fill="#2430D0"/>
<path d="M60 34.79H40.29C38.8313 34.79 37.4324 35.3695 36.401 36.401C35.3695 37.4324 34.79 38.8313 34.79 40.29V60C34.79 60.3979 34.9481 60.7794 35.2294 61.0607C35.5107 61.342 35.8922 61.5 36.29 61.5H56C57.4579 61.4974 58.8553 60.9171 59.8862 59.8862C60.9171 58.8553 61.4974 57.4579 61.5 56V36.29C61.5 35.8922 61.342 35.5107 61.0607 35.2294C60.7794 34.9481 60.3979 34.79 60 34.79Z" fill="#2430D0"/>
<path d="M40.29 21.3601H56C57.4587 21.3601 58.8577 20.7806 59.8891 19.7492C60.9206 18.7177 61.5 17.3188 61.5 15.8601C61.5 14.4014 60.9206 13.0025 59.8891 11.971C58.8577 10.9396 57.4587 10.3601 56 10.3601H40.29C38.8313 10.3601 37.4324 10.9396 36.401 11.971C35.3695 13.0025 34.79 14.4014 34.79 15.8601C34.79 17.3188 35.3695 18.7177 36.401 19.7492C37.4324 20.7806 38.8313 21.3601 40.29 21.3601Z" fill="#2430D0"/>
</svg>
