<svg width="32" height="32" viewBox="0 0 32 32" fill="none" xmlns="http://www.w3.org/2000/svg">
<path d="M3 25L5.6 20.8C7.1 18.5 9.6 17 12.4 17H19C19 19.2 17.2 21 15 21H13" stroke="white" stroke-width="2" stroke-miterlimit="10" stroke-linecap="round" stroke-linejoin="round"/>
<path d="M15 21H23L24.2 19.4C25.3 17.9 27.1 17 29 17L26.3 21.8C24.9 24.4 22.1 26 19.2 26C14.5 26 9.9 27.4 6 30" stroke="white" stroke-width="2" stroke-miterlimit="10" stroke-linecap="round" stroke-linejoin="round"/>
<path d="M20.5 14C22.433 14 24 12.433 24 10.5C24 8.567 22.433 7 20.5 7C18.567 7 17 8.567 17 10.5C17 12.433 18.567 14 20.5 14Z" stroke="white" stroke-width="2" stroke-miterlimit="10" stroke-linecap="round" stroke-linejoin="round"/>
<path d="M19 7.3C18.9 5.5 17.4 4 15.5 4C13.6 4 12 5.6 12 7.5C12 9.4 13.6 11 15.5 11C16 11 16.5 10.9 17 10.7" stroke="white" stroke-width="2" stroke-miterlimit="10" stroke-linecap="round" stroke-linejoin="round"/>
</svg>
