<svg width="45" height="36" viewBox="0 0 45 36" fill="none" xmlns="http://www.w3.org/2000/svg">
<mask id="mask0_631_1866" style="mask-type:luminance" maskUnits="userSpaceOnUse" x="0" y="0" width="12" height="24">
<path d="M0 0.613037H11.6765V23.6588H0V0.613037Z" fill="white"/>
</mask>
<g mask="url(#mask0_631_1866)">
<path fill-rule="evenodd" clip-rule="evenodd" d="M11.6669 0.793882C11.6669 0.893907 11.5861 0.974727 11.4868 0.974727C5.34691 0.974727 0.369672 5.97117 0.369672 12.1359C0.369672 18.2998 5.34691 23.2971 11.4868 23.2971C11.5861 23.2971 11.6669 23.3779 11.6669 23.4779C11.6669 23.578 11.5861 23.6588 11.4868 23.6588C5.14846 23.6588 0.00958252 18.4999 0.00958252 12.1359C0.00958252 5.77192 5.14846 0.613037 11.4868 0.613037C11.5861 0.613037 11.6669 0.693857 11.6669 0.793882Z" fill="#CBA65F"/>
</g>
<path d="M20.2594 0.278469L19.2576 1.55559C18.8431 1.32513 18.4518 1.11868 18.0829 0.934633C17.7156 0.748986 17.3419 0.598549 16.9626 0.48332C16.5825 0.368092 16.1792 0.28167 15.7527 0.224056C15.3278 0.166441 14.8389 0.137634 14.2868 0.137634C13.1577 0.137634 12.1502 0.32248 11.2652 0.691372C10.3794 1.06106 9.6248 1.55559 9.00224 2.17654C8.38129 2.7975 7.90917 3.51127 7.58749 4.31788C7.26501 5.12288 7.10417 5.97429 7.10417 6.87211C7.10417 8.09322 7.47706 9.21029 8.22445 10.2233C8.97344 11.2348 10.1425 12.0054 11.7325 12.5343C12.4919 12.7888 13.1361 12.9968 13.6658 13.1585C14.1947 13.3185 14.6885 13.4738 15.1478 13.6226C15.6087 13.7722 16.0744 13.9331 16.5465 14.1059C17.0178 14.2788 17.5652 14.5148 18.1885 14.8133C18.9695 15.183 19.4977 15.6951 19.7729 16.3497C20.0498 17.005 20.189 17.6668 20.189 18.3342C20.189 19.1648 20.0274 19.9186 19.7057 20.5971C19.3832 21.2757 18.9575 21.8454 18.4286 22.3064C17.8989 22.7657 17.2891 23.1218 16.5977 23.3754C15.908 23.6299 15.207 23.7563 14.4948 23.7563C13.6642 23.7563 12.8696 23.6123 12.1102 23.3242C11.35 23.0361 10.6483 22.628 10.0041 22.0983C9.35913 21.5694 8.80139 20.9132 8.33008 20.1298C7.85796 19.3472 7.49547 18.4718 7.2418 17.5052C7.17299 17.2067 7.04736 17.057 6.86411 17.057C6.70167 17.057 6.62085 17.2187 6.62085 17.5404V23.7211C6.62085 24.0196 6.72408 24.1692 6.93133 24.1692C7.06976 24.1692 7.2194 24.054 7.37944 23.8235L8.62455 22.0279C8.89982 22.2823 9.2391 22.548 9.6424 22.8249C10.0457 23.1002 10.4946 23.353 10.9899 23.5835C11.4845 23.8139 12.0142 24.0036 12.5775 24.1532C13.1409 24.3021 13.7218 24.3773 14.322 24.3773C15.4246 24.3773 16.4481 24.1756 17.3915 23.7723C18.3366 23.369 19.1536 22.8113 19.8433 22.0983C20.5347 21.3861 21.082 20.5411 21.4854 19.5633C21.8887 18.5838 22.0903 17.53 22.0903 16.4009C22.0903 14.8581 21.727 13.5522 21.002 12.4831C20.2762 11.4124 19.1312 10.6459 17.5676 10.1849C17.0362 10.0249 16.5401 9.88726 16.0792 9.77203C15.6199 9.6568 15.1486 9.53117 14.6645 9.39434C14.1819 9.2559 13.6762 9.09987 13.1473 8.92702C12.6175 8.75418 12.031 8.54133 11.3868 8.28686C10.6715 8.01159 10.1297 7.58589 9.76083 7.00975C9.39354 6.4336 9.21029 5.76624 9.21029 5.00605C9.21029 4.29387 9.35913 3.66731 9.65841 3.12718C9.95928 2.58544 10.345 2.14133 10.8171 1.79565C11.2884 1.44996 11.8293 1.1923 12.4399 1.02105C13.0497 0.848211 13.6658 0.76179 14.2868 0.76179C15.2294 0.76179 16.0576 0.92343 16.7706 1.24511C17.4852 1.56759 18.0837 1.9933 18.5662 2.52223C19.0503 3.05196 19.4368 3.66171 19.7249 4.35308C20.013 5.04286 20.2026 5.75503 20.2947 6.49122C20.3179 6.72167 20.4211 6.8369 20.6051 6.8369C20.7652 6.8369 20.8452 6.72167 20.8452 6.49122V0.345686C20.8452 0.115229 20.7764 0 20.6403 0C20.5251 0 20.3979 0.0928231 20.2594 0.278469Z" fill="#2430D0"/>
<mask id="mask1_631_1866" style="mask-type:luminance" maskUnits="userSpaceOnUse" x="27" y="11" width="18" height="25">
<path d="M27.9974 11.4061H45V35.7834H27.9974V11.4061Z" fill="white"/>
</mask>
<g mask="url(#mask1_631_1866)">
<mask id="mask2_631_1866" style="mask-type:luminance" maskUnits="userSpaceOnUse" x="28" y="11" width="21" height="29">
<path d="M28.0222 34.8232L36.5211 11.4302L48.5065 15.7849L40.0075 39.1779L28.0222 34.8232Z" fill="white"/>
</mask>
<g mask="url(#mask2_631_1866)">
<mask id="mask3_631_1866" style="mask-type:luminance" maskUnits="userSpaceOnUse" x="28" y="11" width="21" height="29">
<path d="M28.0222 34.8232L36.5211 11.4302L48.5065 15.7849L40.0075 39.1779L28.0222 34.8232Z" fill="white"/>
</mask>
<g mask="url(#mask3_631_1866)">
<path fill-rule="evenodd" clip-rule="evenodd" d="M28.099 34.6439C28.1358 34.5423 28.2478 34.4903 28.3503 34.5271C34.6518 36.8173 41.604 33.6005 43.8773 27.3437C46.1507 21.0862 42.8843 14.1572 36.5827 11.8679C36.4803 11.8311 36.4275 11.719 36.4643 11.6174C36.5011 11.5158 36.6139 11.4638 36.7155 11.5014C43.222 13.8652 46.5932 21.0173 44.247 27.4774C41.9 33.9374 34.723 37.2582 28.2166 34.8944C28.115 34.8576 28.0622 34.7448 28.099 34.6439Z" fill="#CBA65F"/>
</g>
</g>
</g>
<path d="M28.8056 22.2778H31.5326C32.0384 22.2778 32.4401 22.3531 32.7393 22.5019C33.0402 22.6515 33.2771 22.8652 33.4499 23.142C33.6228 23.4173 33.7548 23.7518 33.8468 24.1439C33.938 24.5344 34.0301 24.9713 34.1221 25.453C34.1925 25.7755 34.2837 25.9363 34.3973 25.9363C34.5358 25.9363 34.6054 25.7875 34.6054 25.4882V18.4785C34.6054 18.2032 34.5358 18.0656 34.3973 18.0656C34.2837 18.0656 34.1925 18.2272 34.1221 18.5489C34.0301 19.0314 33.938 19.4691 33.8468 19.8612C33.7548 20.2517 33.6228 20.5862 33.4499 20.8631C33.2771 21.1383 33.0402 21.3512 32.7393 21.5C32.4401 21.6497 32.0384 21.7241 31.5326 21.7241H28.8056V11.5744H34.0549C34.8359 11.5744 35.4904 11.7648 36.0202 12.1441C36.5515 12.5242 36.978 12.9955 37.3005 13.5589C37.6222 14.1222 37.8582 14.7208 38.0078 15.3545C38.1567 15.9883 38.2431 16.558 38.2671 17.0637C38.2671 17.3862 38.3583 17.5471 38.5424 17.5471C38.7024 17.5471 38.7824 17.3982 38.7824 17.0989V11.8496C38.7824 11.2975 38.4952 11.0206 37.9214 11.0206H22.4872V11.5744H25.4575V33.6695H22.5224V34.2232H38.7504C39.4162 34.2232 39.7491 33.8551 39.7491 33.1189V27.94C39.7491 27.3879 39.6571 27.111 39.4738 27.111C39.3138 27.111 39.1873 27.3527 39.0961 27.8344C38.9105 28.7098 38.7136 29.5044 38.5072 30.219C38.2999 30.932 38.0239 31.5473 37.6782 32.0659C37.3325 32.5844 36.8948 32.9813 36.3658 33.2566C35.8361 33.5318 35.1695 33.6695 34.3653 33.6695H28.8056V22.2778Z" fill="#2430D0"/>
<path d="M5.90253 29.8126C5.90653 29.883 5.92493 29.947 5.95694 30.0046C5.99055 30.0623 6.03696 30.1119 6.09457 30.1519C6.15379 30.1903 6.22341 30.2215 6.30263 30.2447C6.38105 30.2655 6.46667 30.2767 6.55869 30.2767C6.65471 30.2767 6.73954 30.2655 6.81475 30.2447C6.89157 30.2215 6.95639 30.1887 7.01 30.1455C7.06522 30.1031 7.10763 30.0519 7.13803 29.9918C7.16764 29.9302 7.18285 29.8622 7.18285 29.787C7.18285 29.687 7.15724 29.6045 7.10603 29.5405C7.05481 29.4749 6.9908 29.4205 6.91398 29.3773C6.83876 29.3325 6.75714 29.2965 6.66752 29.2685C6.5779 29.2389 6.49467 29.2076 6.41786 29.1756C6.34264 29.142 6.28022 29.1036 6.22901 29.0604C6.1778 29.018 6.15219 28.9612 6.15219 28.8908C6.15219 28.8524 6.16019 28.8163 6.1778 28.7819C6.1946 28.7459 6.22021 28.7163 6.25461 28.6923C6.28822 28.6667 6.32983 28.6467 6.37945 28.6315C6.42826 28.6147 6.48507 28.6059 6.54909 28.6059C6.65551 28.6059 6.74514 28.6283 6.81795 28.6731C6.89237 28.7179 6.93718 28.7899 6.95239 28.8876H7.11883C7.10763 28.826 7.08522 28.7715 7.05161 28.7243C7.0172 28.6755 6.97319 28.6339 6.92038 28.5995C6.86917 28.5659 6.80995 28.5403 6.74434 28.5227C6.67792 28.5059 6.6083 28.4971 6.53628 28.4971C6.45947 28.4971 6.38665 28.5083 6.31863 28.5291C6.25221 28.5483 6.1922 28.5771 6.13939 28.6155C6.08817 28.6523 6.04736 28.6987 6.01776 28.7563C5.98735 28.8139 5.97294 28.8796 5.97294 28.9516C5.97294 29.05 5.99695 29.1292 6.04656 29.1884C6.09537 29.2461 6.15699 29.2957 6.23221 29.3357C6.30663 29.3741 6.38665 29.4077 6.47227 29.4349C6.55949 29.4629 6.64031 29.4949 6.71553 29.5309C6.78995 29.5653 6.85156 29.6077 6.90118 29.659C6.94999 29.7086 6.97479 29.7758 6.97479 29.8606C6.97479 29.9678 6.93478 30.0455 6.85636 30.0943C6.77955 30.1439 6.67712 30.1679 6.54909 30.1679C6.44426 30.1679 6.36104 30.1551 6.29943 30.1295C6.23701 30.1023 6.189 30.0703 6.15539 30.0335C6.12338 29.995 6.10098 29.9558 6.08817 29.915C6.07697 29.875 6.07217 29.8406 6.07217 29.8126H5.90253Z" fill="black"/>
<path d="M7.90851 28.5259H7.74207V30.2479H7.85089V28.8428H7.86049L8.61908 30.2767H8.6639L9.44169 28.8556H9.45129V30.2479H9.67535V28.5259H9.5057L8.70871 30.0046H8.6991L7.90851 28.5259Z" fill="black"/>
<path d="M11.3196 29.7422L11.5564 30.2479H11.7933L10.9931 28.5259H10.8682L10.1417 30.2479H10.2537L10.4713 29.7422H11.3196ZM11.2683 29.6302H10.5194L10.8714 28.8011H10.881L11.2683 29.6302Z" fill="black"/>
<path d="M12.2603 28.5259V30.2479H12.4843V29.4893H12.5931C12.6379 29.4893 12.6748 29.4941 12.7052 29.5021C12.7372 29.5085 12.7644 29.5229 12.7884 29.5437C12.814 29.5629 12.8372 29.5885 12.8588 29.6206C12.8796 29.651 12.9052 29.6878 12.9356 29.7326L13.1277 30.0207C13.1533 30.0591 13.1773 30.0943 13.2013 30.1263C13.2245 30.1567 13.2501 30.1831 13.2781 30.2063C13.3053 30.2279 13.3365 30.2447 13.3709 30.2575C13.4069 30.2703 13.4494 30.2767 13.499 30.2767C13.535 30.2767 13.5646 30.2743 13.5886 30.2703C13.6118 30.2679 13.6342 30.2607 13.6558 30.2479V30.1583C13.6494 30.1583 13.6414 30.1599 13.6334 30.1615C13.6246 30.1615 13.6158 30.1615 13.6078 30.1615C13.5734 30.1615 13.5422 30.1575 13.515 30.1487C13.4894 30.1383 13.4646 30.1231 13.4413 30.1039C13.4197 30.0847 13.3981 30.0623 13.3773 30.0367C13.3557 30.0094 13.3333 29.9782 13.3101 29.9438C13.2413 29.8438 13.1885 29.7638 13.1501 29.7038C13.1133 29.6446 13.0837 29.5981 13.0605 29.5661C13.0388 29.5325 13.0204 29.5077 13.006 29.4925C12.9932 29.4781 12.9772 29.4661 12.958 29.4573L12.9324 29.4445V29.4349C13.0108 29.4285 13.0781 29.4117 13.1341 29.3837C13.1917 29.3541 13.2373 29.3165 13.2717 29.2717C13.3077 29.2269 13.3341 29.1788 13.3517 29.1276C13.3685 29.0764 13.3773 29.0268 13.3773 28.9772C13.3773 28.9324 13.3685 28.8844 13.3517 28.8332C13.3341 28.7803 13.3045 28.7307 13.2621 28.6859C13.2213 28.6411 13.1645 28.6043 13.0925 28.5739C13.0196 28.5419 12.9276 28.5259 12.8172 28.5259H12.2603ZM12.4843 28.6347H12.734C12.7956 28.6347 12.8508 28.6443 12.9004 28.6635C12.9516 28.6811 12.994 28.7051 13.0284 28.7371C13.0645 28.7691 13.0925 28.8075 13.1117 28.8524C13.1309 28.8972 13.1405 28.9452 13.1405 28.9964C13.1405 29.0412 13.1317 29.086 13.1149 29.1308C13.0973 29.1756 13.0717 29.2173 13.038 29.2557C13.0036 29.2925 12.9612 29.3221 12.91 29.3453C12.8604 29.3669 12.8028 29.3773 12.7372 29.3773H12.4843V28.6347Z" fill="black"/>
<path d="M14.7606 30.2479V28.6635H15.4199V28.5259H13.8771V28.6635H14.5365V30.2479H14.7606Z" fill="black"/>
<path d="M6.10736 31.9059V33.6279H7.21804V33.4935H6.33142V32.7733H7.09321V32.6581H6.33142V32.0435H7.21804V31.9059H6.10736Z" fill="black"/>
<path d="M7.73999 31.9059H7.46472L8.13689 32.7701L7.47752 33.6279H7.60876L8.1977 32.8597H8.20731L8.80586 33.6279H9.08432L8.33854 32.6773L8.92749 31.9059H8.79625L8.27772 32.5845H8.26492L7.73999 31.9059Z" fill="black"/>
<path d="M9.77539 32.9109C9.8178 32.9221 9.86341 32.9317 9.91302 32.9397C9.96183 32.9461 10.0162 32.9493 10.0763 32.9493C10.1763 32.9493 10.2651 32.9357 10.3419 32.9077C10.4187 32.8805 10.4828 32.8429 10.534 32.7957C10.5852 32.7469 10.6236 32.6901 10.6492 32.6261C10.6764 32.562 10.6908 32.4948 10.6908 32.4244C10.6908 32.354 10.6788 32.2884 10.6556 32.226C10.6316 32.1619 10.5964 32.1075 10.55 32.0627C10.5028 32.0163 10.4444 31.9787 10.3739 31.9507C10.3035 31.9211 10.2211 31.9059 10.1275 31.9059H9.55133V33.6279H9.77539V32.9109ZM9.77539 32.0147H10.0347C10.1027 32.0147 10.1627 32.0275 10.2139 32.0531C10.2667 32.0771 10.3107 32.1091 10.3451 32.1491C10.3787 32.19 10.4043 32.2356 10.4219 32.2868C10.4388 32.3364 10.4476 32.3852 10.4476 32.434C10.4476 32.4812 10.4396 32.5292 10.4251 32.5781C10.4099 32.6253 10.3851 32.6693 10.3515 32.7093C10.3171 32.7477 10.2731 32.7797 10.2203 32.8053C10.1667 32.8293 10.1035 32.8405 10.0315 32.8405C9.98024 32.8405 9.93303 32.8389 9.89062 32.8341C9.8474 32.8301 9.80899 32.8213 9.77539 32.8085V32.0147Z" fill="black"/>
<path d="M11.1566 31.9059V33.6279H12.2672V33.4935H11.3806V32.7733H12.1424V32.6581H11.3806V32.0435H12.2672V31.9059H11.1566Z" fill="black"/>
<path d="M14.1207 31.9059V33.2214H14.1111L12.7475 31.8771H12.7347V33.6279H12.8468V32.3124H12.8596L14.2231 33.6567H14.2359V31.9059H14.1207Z" fill="black"/>
<path d="M14.7177 33.1926C14.7217 33.263 14.7401 33.327 14.7721 33.3847C14.8057 33.4423 14.8521 33.4919 14.9097 33.5319C14.9689 33.5703 15.0385 33.6015 15.1178 33.6247C15.1962 33.6455 15.2818 33.6567 15.3738 33.6567C15.4698 33.6567 15.5547 33.6455 15.6299 33.6247C15.7067 33.6015 15.7715 33.5687 15.8251 33.5255C15.8803 33.4831 15.9228 33.4319 15.9532 33.3718C15.9828 33.3102 15.998 33.2422 15.998 33.167C15.998 33.067 15.9724 32.9846 15.9212 32.9205C15.8699 32.8549 15.8059 32.8005 15.7291 32.7573C15.6539 32.7125 15.5723 32.6765 15.4826 32.6485C15.393 32.6189 15.3098 32.5877 15.233 32.5556C15.1578 32.522 15.0953 32.4836 15.0441 32.4404C14.9929 32.398 14.9673 32.3412 14.9673 32.2708C14.9673 32.2324 14.9753 32.1964 14.9929 32.1619C15.0097 32.1259 15.0353 32.0963 15.0697 32.0723C15.1033 32.0467 15.145 32.0267 15.1946 32.0115C15.2434 31.9947 15.3002 31.9859 15.3642 31.9859C15.4706 31.9859 15.5603 32.0083 15.6331 32.0531C15.7075 32.0979 15.7523 32.1699 15.7675 32.2676H15.934C15.9228 32.206 15.9003 32.1515 15.8667 32.1043C15.8323 32.0555 15.7883 32.0139 15.7355 31.9795C15.6843 31.9459 15.6251 31.9203 15.5595 31.9027C15.493 31.8859 15.4234 31.8771 15.3514 31.8771C15.2746 31.8771 15.2018 31.8883 15.1338 31.9091C15.0673 31.9283 15.0073 31.9571 14.9545 31.9955C14.9033 32.0323 14.8625 32.0787 14.8329 32.1363C14.8025 32.194 14.7881 32.2596 14.7881 32.3316C14.7881 32.43 14.8121 32.5092 14.8617 32.5684C14.9105 32.6261 14.9721 32.6757 15.0473 32.7157C15.1218 32.7541 15.2018 32.7877 15.2874 32.8149C15.3746 32.8429 15.4554 32.8749 15.5307 32.9109C15.6051 32.9453 15.6667 32.9878 15.7163 33.039C15.7651 33.0886 15.7899 33.1558 15.7899 33.2406C15.7899 33.3478 15.7499 33.4255 15.6715 33.4743C15.5947 33.5239 15.4922 33.5479 15.3642 33.5479C15.2594 33.5479 15.1762 33.5351 15.1146 33.5095C15.0521 33.4823 15.0041 33.4503 14.9705 33.4135C14.9385 33.375 14.9161 33.3358 14.9033 33.295C14.8921 33.255 14.8873 33.2206 14.8873 33.1926H14.7177Z" fill="black"/>
<path d="M16.5573 31.9059V33.6279H17.6679V33.4935H16.7813V32.7733H17.5431V32.6581H16.7813V32.0435H17.6679V31.9059H16.5573Z" fill="black"/>
</svg>
