<svg width="64" height="64" viewBox="0 0 64 64" fill="none" xmlns="http://www.w3.org/2000/svg">
<path d="M4 62H10C11.1 62 12 61.1 12 60V58H34.6C39.6 58 44.5 56.6 48.8 53.9C55.2 49.9 59.7 43.3 61 35.8L61.4 33.3C61.6 32.2 61.3 31.1 60.6 30.2C59.9 29.3 58.8 28.9 57.7 28.9C57.1 28.9 56.5 29.1 56 29.3V25H57C57.4 25 57.8 24.8 57.9 24.4C58.1 24 58 23.6 57.7 23.3L49.7 15.3C49.3 14.9 48.7 14.9 48.3 15.3L46 17.6V4C46 3.4 45.6 3 45 3H35C34.4 3 34 3.4 34 4V15H29.9C29.1 13.3 28.6 12.3 28.1 11.8L30.6 5.6C30.9 4.9 30.7 4.2 30.2 3.7C29.7 3.2 28.9 3.1 28.2 3.4L26.3 4.3L25.1 2.7C24.8 2.3 24.3 2 23.8 2C23.3 2 22.8 2.1 22.4 2.5L20.9 4L19.9 2.7C19.6 2.3 19.1 2 18.6 2C18.1 2 17.6 2.1 17.3 2.5L15.4 4.4L12.5 3.6C11.8 3.4 11.1 3.6 10.7 4.2C10.3 4.7 10.2 5.5 10.5 6.1L13.5 11.7C11.6 13.6 9 19 9 23.9V27C9 30.3 11.7 33 15 33H53.4L51.3 37.2L45.8 39.6C45.2 37.5 43.3 36 41 36H26.6C21.4 36 16.4 37.4 12 40.1V38C12 36.9 11.1 36 10 36H4C2.9 36 2 36.9 2 38V60C2 61.1 2.9 62 4 62ZM15.2 6.4C15.8 6.6 16.5 6.4 16.9 6L18.7 4.2L19.7 5.5C20 5.9 20.5 6.2 21 6.2C21.5 6.2 22 6.1 22.3 5.7L23.8 4.2L25 5.7C25.5 6.4 26.4 6.6 27.2 6.2L28.7 5.5L26.3 11H23.6L24.9 8.4L23.1 7.5L21.4 11H19.6L18.2 8.1L16.4 9L17.4 11H15.6L12.8 5.8L15.2 6.4ZM25 16V31H15C12.8 31 11 29.2 11 27V23.9C11 18.5 14.3 13.6 15.3 13H26.6C26.8 13.2 27.1 13.7 27.8 15H26C25.4 15 25 15.4 25 16ZM27 17H34V31H27V17ZM49 17.4L54.6 23H43.4L49 17.4ZM36 5H44V19.6L40.3 23.3C40 23.6 39.9 24 40.1 24.4C40.3 24.8 40.6 25 41 25H42V31H36V5ZM44 25H54V31H52V27C52 26.4 51.6 26 51 26H47C46.4 26 46 26.4 46 27V31H44V25ZM50 31H48V28H50V31ZM26.6 38H41C42.7 38 44 39.3 44 41C44 42.7 42.7 44 41 44H25V46H41C43.5 46 45.6 44.1 45.9 41.7L52.4 38.9C52.6 38.8 52.8 38.6 52.9 38.4L56.1 31.9C56.4 31.3 57 30.9 57.7 30.9C58.2 30.9 58.7 31.1 59.1 31.5C59.5 31.9 59.6 32.4 59.5 32.9L59 35.5C57.8 42.4 53.7 48.5 47.7 52.2C43.8 54.7 39.2 56 34.6 56H12V42.5C16.3 39.6 21.4 38 26.6 38ZM4 38H10V60H4V38Z" fill="#2430D0"/>
<path d="M8 41H6V44H8V41Z" fill="#2430D0"/>
<path d="M39 7H38V9H39V7Z" fill="#2430D0"/>
<path d="M42 7H41V9H42V7Z" fill="#2430D0"/>
<path d="M39 11H38V13H39V11Z" fill="#2430D0"/>
<path d="M42 11H41V13H42V11Z" fill="#2430D0"/>
<path d="M39 15H38V17H39V15Z" fill="#2430D0"/>
<path d="M42 15H41V17H42V15Z" fill="#2430D0"/>
<path d="M30 19H29V21H30V19Z" fill="#2430D0"/>
<path d="M33 19H32V21H33V19Z" fill="#2430D0"/>
<path d="M30 23H29V25H30V23Z" fill="#2430D0"/>
<path d="M33 23H32V25H33V23Z" fill="#2430D0"/>
<path d="M30 27H29V29H30V27Z" fill="#2430D0"/>
<path d="M33 27H32V29H33V27Z" fill="#2430D0"/>
<path d="M39 19H38V21H39V19Z" fill="#2430D0"/>
<path d="M42 19H41V21H42V19Z" fill="#2430D0"/>
<path d="M22 18H21V17H19V18H18C17.4 18 17 18.4 17 19V22C17 22.6 17.4 23 18 23H21V24H17V25C17 25.6 17.4 26 18 26H19V27H21V26H22C22.6 26 23 25.6 23 25V22C23 21.4 22.6 21 22 21H19V20H23V19C23 18.4 22.6 18 22 18Z" fill="#2430D0"/>
<path d="M55 4H53V6H55V4Z" fill="#2430D0"/>
<path d="M57 2H55V4H57V2Z" fill="#2430D0"/>
<path d="M59 4H57V6H59V4Z" fill="#2430D0"/>
<path d="M57 6H55V8H57V6Z" fill="#2430D0"/>
<path d="M62 9H60V11H62V9Z" fill="#2430D0"/>
<path d="M55 12H53V14H55V12Z" fill="#2430D0"/>
<path d="M4 11H2V13H4V11Z" fill="#2430D0"/>
<path d="M6 9H4V11H6V9Z" fill="#2430D0"/>
<path d="M8 11H6V13H8V11Z" fill="#2430D0"/>
<path d="M6 13H4V15H6V13Z" fill="#2430D0"/>
<path d="M4 19H2V21H4V19Z" fill="#2430D0"/>
<path d="M8 2H6V4H8V2Z" fill="#2430D0"/>
</svg>
